<svg height='100px' width='100px'  fill="#000000" xmlns="http://www.w3.org/2000/svg" xmlns:xlink="http://www.w3.org/1999/xlink" xmlns:sketch="http://www.bohemiancoding.com/sketch/ns" viewBox="0 0 100 100" version="1.1" x="0px" y="0px"><title>eye-fill 94</title><desc>Created with Sketch.</desc><g stroke="none" stroke-width="1" fill="none" fill-rule="evenodd" sketch:type="MSPage"><path d="M78.41625,71.185 C78.41625,73.5475 76.49625,75.47125 74.13375,75.47125 L26.0325,75.47125 C23.67,75.47125 21.75,73.5475 21.75,71.185 L21.75,53.57125 L33.01875,56.605 L33.01875,60.98125 C33.01875,62.02 33.85875,62.85625 34.89375,62.85625 C35.92875,62.85625 36.76875,62.02 36.76875,60.98125 L36.76875,57.6175 L49.59375,61.075 C49.755,61.11625 49.91625,61.13875 50.08125,61.13875 C50.24625,61.13875 50.41125,61.11625 50.56875,61.075 L63.3975,57.6175 L63.3975,60.98125 C63.3975,62.02 64.23375,62.85625 65.2725,62.85625 C66.3075,62.85625 67.1475,62.02 67.1475,60.98125 L67.1475,56.605 L78.41625,53.57125 L78.41625,71.185 Z M21.75,38.605 C21.75,36.24625 23.67,34.32625 26.0325,34.32625 L40.79625,34.32625 L59.37,34.32625 L74.13375,34.32625 C76.49625,34.32625 78.41625,36.24625 78.41625,38.605 L78.41625,49.69 L67.1475,52.7275 L67.1475,51.1225 C67.1475,50.0875 66.3075,49.2475 65.2725,49.2475 C64.23375,49.2475 63.3975,50.0875 63.3975,51.1225 L63.3975,53.73625 L50.08125,57.325 L36.76875,53.73625 L36.76875,51.1225 C36.76875,50.0875 35.92875,49.2475 34.89375,49.2475 C33.85875,49.2475 33.01875,50.0875 33.01875,51.1225 L33.01875,52.7275 L21.75,49.69 L21.75,38.605 Z M42.67125,25.75 L57.495,25.75 L57.495,30.57625 L42.67125,30.57625 L42.67125,25.75 Z M74.13375,30.57625 L61.245,30.57625 L61.245,23.875 C61.245,22.83625 60.405,22 59.37,22 L40.79625,22 C39.7575,22 38.92125,22.83625 38.92125,23.875 L38.92125,30.57625 L26.0325,30.57625 C21.60375,30.57625 18,34.18 18,38.605 L18,71.185 C18,75.6175 21.60375,79.22125 26.0325,79.22125 L74.13375,79.22125 C78.5625,79.22125 82.16625,75.6175 82.16625,71.185 L82.16625,38.605 C82.16625,34.18 78.5625,30.57625 74.13375,30.57625 L74.13375,30.57625 Z" fill="#000000" sketch:type="MSShapeGroup"></path></g></svg>