<svg height='100px' width='100px'  fill="#000000" xmlns="http://www.w3.org/2000/svg" xmlns:xlink="http://www.w3.org/1999/xlink" xmlns:sketch="http://www.bohemiancoding.com/sketch/ns" viewBox="0 0 100 100" version="1.1" x="0px" y="0px"><title>eye-fill 13</title><desc>Created with Sketch.</desc><g stroke="none" stroke-width="1" fill="none" fill-rule="evenodd" sketch:type="MSPage"><path d="M52.3475,63.6425 L36.8,63.6425 C35.765,63.6425 34.925,64.4825 34.925,65.5175 C34.925,66.5525 35.765,67.3925 36.8,67.3925 L52.3475,67.3925 C53.3825,67.3925 54.2225,66.5525 54.2225,65.5175 C54.2225,64.4825 53.3825,63.6425 52.3475,63.6425 L52.3475,63.6425 Z M63.51875,54.755 L36.8,54.755 C35.765,54.755 34.925,55.595 34.925,56.63 C34.925,57.665 35.765,58.505 36.8,58.505 L63.51875,58.505 C64.5575,58.505 65.39375,57.665 65.39375,56.63 C65.39375,55.595 64.5575,54.755 63.51875,54.755 L63.51875,54.755 Z M34.925,47.74625 C34.925,48.78125 35.765,49.62125 36.8,49.62125 L63.51875,49.62125 C64.5575,49.62125 65.39375,48.78125 65.39375,47.74625 C65.39375,46.7075 64.5575,45.87125 63.51875,45.87125 L36.8,45.87125 C35.765,45.87125 34.925,46.7075 34.925,47.74625 L34.925,47.74625 Z M72.73625,79.62125 L26.75,79.62125 L26.75,20.75 L52.7375,20.75 L52.7375,28.09625 L36.8,28.09625 C35.765,28.09625 34.925,28.9325 34.925,29.97125 C34.925,31.00625 35.765,31.84625 36.8,31.84625 L52.7375,31.84625 L52.7375,36.98375 L36.8,36.98375 C35.765,36.98375 34.925,37.82 34.925,38.85875 C34.925,39.89375 35.765,40.73375 36.8,40.73375 L54.5225,40.73375 C54.55625,40.73375 54.5825,40.7525 54.6125,40.7525 L72.73625,40.7525 L72.73625,79.62125 Z M56.4875,29.97125 L56.4875,23.405 L70.085,37.0025 L56.4875,37.0025 L56.4875,29.97125 Z M76.44125,38.6375 C76.43,38.555 76.41125,38.47625 76.3925,38.3975 C76.30625,38.08625 76.175,37.78625 75.93875,37.55 L75.935,37.54625 L55.94375,17.555 L55.94,17.55125 C55.7,17.315 55.4,17.18 55.08875,17.0975 C55.01375,17.07875 54.93875,17.06375 54.86375,17.0525 C54.7775,17.04125 54.7025,17 54.6125,17 L24.875,17 C23.84,17 23,17.84 23,18.875 L23,81.49625 C23,82.53125 23.84,83.37125 24.875,83.37125 L74.61125,83.37125 C75.65,83.37125 76.48625,82.53125 76.48625,81.49625 L76.48625,38.8775 C76.48625,38.79125 76.4525,38.72 76.44125,38.6375 L76.44125,38.6375 Z" fill="#000000" sketch:type="MSShapeGroup"></path></g></svg>