<?xml version="1.0" encoding="UTF-8"?>
<svg width="96px" height="96px" viewBox="0 0 96 96" version="1.1" xmlns="http://www.w3.org/2000/svg" xmlns:xlink="http://www.w3.org/1999/xlink">
    <!-- Generator: Sketch 52.3 (67297) - http://www.bohemiancoding.com/sketch -->
    <title>hgr-logo-v44</title>
    <desc>Created with Sketch.</desc>
    <g id="Page-1" stroke="none" stroke-width="1" fill="none" fill-rule="evenodd">
        <g id="Desktop-HD" transform="translate(-40.000000, -38.000000)">
            <g id="Header" transform="translate(42.000000, 40.000000)">
                <g id="hgr-logo-v44">
                    <rect id="Rectangle" stroke="#FF333D" stroke-width="2" x="-1" y="-1" width="47" height="47"></rect>
                    <polygon id="Path" fill="#FF333D" points="32 10 32 34 28.781982 34 28.781982 23.1314286 16.2522523 23.1314286 16.2522523 34 13 34 13 10 16.2522523 10 16.2522523 20.32 28.781982 20.32 28.781982 10"></polygon>
                    <rect id="Rectangle" stroke="#FF333D" stroke-width="2" x="46" y="-1" width="47" height="47"></rect>
                    <path d="M79,22.3239843 L79,34.6508541 L76.2708279,34.6508541 L76.2708279,31.2257618 C74.7884565,33.6495845 72.2718726,35 68.6176547,35 C62.308958,35 57,30.0831025 57,22.6038781 C57,15.1939058 61.9642204,10 68.721076,10 C73.6508227,10 77.236093,12.700831 78.8563594,16.7520776 L76.0984591,17.8601108 C74.8229303,14.8130194 72.2718726,12.8739612 68.6866022,12.8739612 C63.8258031,12.8739612 60.2750065,16.8559557 60.2750065,22.5692521 C60.2750065,28.2479224 64.0326456,32.1260388 69.0658135,32.1260388 C73.2026639,32.1260388 75.9950379,29.598338 76.2018804,25.6509695 L76.1674066,25.0277008 L68.3476103,25.0277008 L68.3476103,22.3239843 L79,22.3239843 Z" id="Path" fill="#FF333D"></path>
                    <rect id="Rectangle" stroke="#FF333D" stroke-width="2" x="-1" y="46" width="47" height="47"></rect>
                    <path d="M31,80 L27.8942308,80 L26.7173077,74.3085714 C26.0634615,71.2571429 24.5269231,69.9885714 21.5846154,69.9885714 L17.1057692,69.9885714 L17.1057692,80 L14,80 L14,56 L23.1865385,56 C27.6980769,56 30.575,58.64 30.575,62.7542857 C30.575,65.8057143 28.9730769,68.04 26.2923077,68.9942857 C28.1230769,69.7828571 29.2019231,71.2914286 29.6977564,73.6914286 L31,80 Z M23.0884615,67.2114286 C25.7692308,67.2114286 27.5019231,65.5314286 27.5019231,63.0285714 C27.5019231,60.4914286 25.7692308,58.8114286 23.1211538,58.8114286 L17.1057692,58.8114286 L17.1057692,67.2114286 L23.0884615,67.2114286 Z" id="Shape" fill="#FF333D" fill-rule="nonzero"></path>
                </g>
            </g>
        </g>
    </g>
</svg>