<?xml version="1.0" encoding="UTF-8"?>
<svg width="143px" height="49px" viewBox="0 0 143 49" version="1.1" xmlns="http://www.w3.org/2000/svg" xmlns:xlink="http://www.w3.org/1999/xlink">
    <!-- Generator: Sketch 52.3 (67297) - http://www.bohemiancoding.com/sketch -->
    <title>hgr-logo-red-small</title>
    <desc>Created with Sketch.</desc>
    <g id="Page-1" stroke="none" stroke-width="1" fill="none" fill-rule="evenodd">
        <g id="hgr-logo-red-small" transform="translate(1.000000, 1.000000)">
            <rect id="Rectangle" stroke="#FF333D" stroke-width="2" x="0" y="0" width="47" height="47"></rect>
            <polygon id="Path" fill="#FF333D" points="33.5833333 11 33.5833333 37 30.0971472 37 30.0971472 25.2257143 16.5232733 25.2257143 16.5232733 37 13 37 13 11 16.5232733 11 16.5232733 22.18 30.0971472 22.18 30.0971472 11"></polygon>
            <rect id="Rectangle" stroke="#FF333D" stroke-width="2" x="47" y="0" width="47" height="47"></rect>
            <path d="M81.88,23.8169437 L81.88,36.6368883 L79.041661,36.6368883 L79.041661,33.0747923 C77.4999948,35.5955679 74.8827475,37 71.0823609,37 C64.5213163,37 59,31.8864266 59,24.1080332 C59,16.401662 64.1627892,11 71.189919,11 C76.3168556,11 80.0455367,13.8088642 81.7306138,18.0221607 L78.8623975,19.1745152 C77.5358475,16.0055402 74.8827475,13.9889196 71.1540663,13.9889196 C66.0988352,13.9889196 62.4060068,18.1301939 62.4060068,24.0720222 C62.4060068,29.9778393 66.3139514,34.0110804 71.548446,34.0110804 C75.8507705,34.0110804 78.7548394,31.3822715 78.9699556,27.2770083 L78.9341029,26.6288088 L70.8015147,26.6288088 L70.8015147,23.8169437 L81.88,23.8169437 Z" id="Path" fill="#FF333D"></path>
            <rect id="Rectangle" stroke="#FF333D" stroke-width="2" x="94" y="0" width="47" height="47"></rect>
            <path d="M126.416667,37 L123.052083,37 L121.777083,30.8342857 C121.06875,27.5285715 119.404167,26.1542857 116.216667,26.1542857 L111.364583,26.1542857 L111.364583,37 L108,37 L108,11 L117.952083,11 C122.839583,11 125.95625,13.86 125.95625,18.3171428 C125.95625,21.6228572 124.220833,24.0433333 121.316667,25.0771428 C123.3,25.9314285 124.46875,27.5657143 125.005903,30.1657143 L126.416667,37 Z M117.845833,23.1457143 C120.75,23.1457143 122.627083,21.3257143 122.627083,18.6142857 C122.627083,15.8657143 120.75,14.0457143 117.88125,14.0457143 L111.364583,14.0457143 L111.364583,23.1457143 L117.845833,23.1457143 Z" id="Shape" fill="#FF333D" fill-rule="nonzero"></path>
        </g>
    </g>
</svg>