<svg height='100px' width='100px'  fill="#000000" xmlns="http://www.w3.org/2000/svg" xmlns:xlink="http://www.w3.org/1999/xlink" xmlns:sketch="http://www.bohemiancoding.com/sketch/ns" viewBox="0 0 100 100" version="1.1" x="0px" y="0px"><title>eye-fill 117</title><desc>Created with Sketch.</desc><g stroke="none" stroke-width="1" fill="none" fill-rule="evenodd" sketch:type="MSPage"><path d="M60.2801497,74.5440625 C55.4051497,73.0440625 50.5263997,70.3440625 45.7863997,66.5265625 C41.4176497,63.0053125 33.3363997,55.9028125 28.3526497,47.9190625 C23.6501497,40.3853125 23.5638997,34.3553125 28.1013997,29.3903125 L38.9238997,40.2128125 L37.5138997,41.6228125 C36.8876497,42.2490625 36.8576497,43.3403125 37.3413997,44.0828125 C42.2313997,51.5865625 48.5126497,57.8715625 56.1363997,62.8365625 C56.8713997,63.3165625 57.8538997,63.2228125 58.4838997,62.5890625 L59.8901497,61.1790625 L70.7388997,72.0315625 C67.3601497,75.2415625 64.6451497,75.8940625 60.2801497,74.5440625 L60.2801497,74.5440625 Z M30.9063997,26.4990625 C31.9151497,25.4940625 33.5426497,25.5015625 34.5438997,26.4990625 L41.7701497,33.7290625 C42.7713997,34.7303125 42.7751497,36.3615625 41.7701497,37.3628125 L41.5751497,37.5615625 L30.7113997,26.6978125 L30.9063997,26.4990625 Z M62.7363997,58.3328125 C63.7076497,57.3615625 65.3951497,57.3578125 66.3738997,58.3328125 L73.6038997,65.5590625 C74.6051497,66.5640625 74.6051497,68.1953125 73.6038997,69.1965625 L73.4051497,69.3953125 L62.5413997,58.5278125 L62.7363997,58.3328125 Z M76.2551497,62.9078125 L69.0251497,55.6815625 C66.6363997,53.2928125 62.4813997,53.2928125 60.0851497,55.6815625 L56.9201497,58.8503125 C50.7701497,54.6465625 45.5313997,49.4153125 41.2526497,43.1865625 L42.8988997,41.5403125 L42.8988997,41.5403125 L42.9026497,41.5365625 L44.4213997,40.0140625 C46.8888997,37.5540625 46.8888997,33.5415625 44.4213997,31.0778125 L37.1951497,23.8478125 C34.7351497,21.3840625 30.7151497,21.3840625 28.2551497,23.8478125 L26.7401497,25.3665625 C26.7363997,25.3665625 26.7326497,25.3703125 26.7326497,25.3703125 C26.7288997,25.3740625 26.7288997,25.3778125 26.7251497,25.3815625 L25.8251497,26.2815625 C21.4976497,30.6053125 17.8751497,38.2140625 25.1763997,49.9065625 C30.4488997,58.3553125 38.8788997,65.7765625 43.4351497,69.4478125 C48.5463997,73.5653125 53.8451497,76.4865625 59.1738997,78.1290625 C60.9326497,78.6728125 62.5451497,78.9503125 64.0676497,78.9503125 C67.6188997,78.9503125 70.6751497,77.4278125 73.9301497,74.1765625 L76.2551497,71.8478125 C78.7188997,69.3840625 78.7188997,65.3753125 76.2551497,62.9078125 L76.2551497,62.9078125 Z" fill="#000000" sketch:type="MSShapeGroup"></path></g></svg>