<?xml version="1.0" standalone="no"?>
<!DOCTYPE svg PUBLIC "-//W3C//DTD SVG 20010904//EN"
 "http://www.w3.org/TR/2001/REC-SVG-20010904/DTD/svg10.dtd">
<svg version="1.0" xmlns="http://www.w3.org/2000/svg"
 width="700.000000pt" height="700.000000pt" viewBox="0 0 700.000000 700.000000"
 preserveAspectRatio="xMidYMid meet">
<metadata>
Created by potrace 1.11, written by Peter Selinger 2001-2013
</metadata>
<g transform="translate(0.000000,700.000000) scale(0.100000,-0.100000)"
fill="#000000" stroke="none">
<path d="M0 3500 l0 -3500 1785 0 c1421 0 1785 3 1786 13 0 6 1 776 1 1709 1
1214 4 1698 12 1701 6 2 777 4 1714 3 l1702 -1 0 1788 0 1787 -3500 0 -3500 0
0 -3500z m3410 3351 c13 -1 15 -188 14 -1633 -1 -898 -2 -1635 -3 -1638 -2
-10 -3271 -5 -3272 5 -3 29 -4 3242 -1 3255 3 13 190 15 1625 13 892 0 1629
-2 1637 -2z m3435 0 c7 -1 10 -554 10 -1638 l-1 -1638 -1637 -1 c-1488 -1
-1637 1 -1638 15 -1 9 -2 746 -3 1638 -1 1616 -1 1622 19 1625 17 3 3224 1
3250 -1z m-3419 -5064 c0 -1171 -2 -1637 -10 -1638 -30 -3 -3234 -4 -3251 -1
-20 3 -20 11 -18 1635 0 898 2 1634 2 1637 1 3 738 5 1639 5 l1637 0 1 -1638z"/>
<path d="M1098 6125 c-4 0 -4 -1745 1 -1746 3 -1 57 -2 119 -3 l112 -2 0 397
0 397 454 0 c327 0 456 -4 459 -12 2 -6 3 -184 2 -396 l-1 -385 116 0 115 0 0
875 0 875 -115 0 -115 0 0 -375 -1 -375 -457 -1 -457 -1 0 376 0 376 -115 0
c-63 0 -116 0 -117 0z"/>
<path d="M5005 6109 c-115 -19 -159 -34 -254 -84 -179 -94 -322 -265 -391
-467 -44 -131 -55 -208 -54 -373 1 -118 16 -212 50 -312 97 -285 335 -496 629
-556 42 -8 116 -13 185 -12 231 5 395 80 513 235 l27 35 -3 -122 -2 -121 50
-4 c28 -2 73 -1 101 2 l50 5 0 445 -1 445 -387 1 -388 1 0 -98 0 -99 285 0
285 0 0 -48 c0 -102 -57 -245 -126 -316 -103 -107 -238 -156 -411 -151 -49 1
-110 8 -138 15 -292 76 -476 330 -479 660 -1 170 18 266 75 383 132 268 406
395 692 321 145 -37 278 -143 347 -275 l35 -67 95 38 c52 21 96 42 98 48 4 13
-41 103 -82 162 -45 66 -155 170 -219 209 -172 102 -372 137 -582 100z"/>
<path d="M1169 2763 c-3 -29 -3 -1703 0 -1721 3 -22 6 -23 114 -20 l111 3 0
363 -1 363 206 -2 c238 -1 297 -13 369 -75 82 -70 101 -119 162 -415 22 -107
42 -204 45 -216 5 -22 9 -23 118 -23 l114 0 -14 63 c-14 69 -20 98 -29 142 -3
16 -12 61 -20 100 -9 38 -17 79 -19 90 -26 179 -104 318 -212 382 l-45 26 51
24 c63 30 153 111 186 167 117 199 84 471 -74 619 -26 25 -75 59 -108 75 -109
55 -171 62 -583 62 -203 0 -370 -3 -371 -7z m769 -211 c138 -44 216 -161 211
-312 -4 -115 -67 -208 -171 -255 l-63 -29 -260 0 -260 -1 -1 300 c-1 165 3
303 8 306 15 10 502 2 536 -9z"/>
</g>
</svg>
